<svg 
    width="121" 
    height="121" 
    viewBox="0 0 121 121" 
    fill="none" 
    xmlns="http://www.w3.org/2000/svg">
    <path fill-rule="evenodd" clip-rule="evenodd" d="M60.5 7.71864C31.3497 7.71864 7.71864 31.3497 7.71864 60.5C7.71864 89.6504 31.3497 113.281 60.5 113.281C89.6504 113.281 113.281 89.6504 113.281 60.5C113.281 31.3497 89.6504 7.71864 60.5 7.71864ZM0 60.5C0 27.0868 27.0868 0 60.5 0C93.9132 0 121 27.0868 121 60.5C121 93.9132 93.9132 121 60.5 121C27.0868 121 0 93.9132 0 60.5Z" fill="#FF9444"/>
    <path fill-rule="evenodd" clip-rule="evenodd" d="M60.5 12.9475C34.2374 12.9475 12.9475 34.2375 12.9475 60.5C12.9475 86.7625 34.2374 108.052 60.5 108.052C86.7625 108.052 108.052 86.7625 108.052 60.5C108.052 34.2375 86.7625 12.9475 60.5 12.9475ZM7.69849 60.5C7.69849 31.3385 31.3385 7.69851 60.5 7.69851C89.6614 7.69851 113.301 31.3385 113.301 60.5C113.301 89.6614 89.6614 113.301 60.5 113.301C31.3385 113.301 7.69849 89.6614 7.69849 60.5Z" fill="#347AC6"/>
    <path d="M60.8008 28.2652C61.5385 28.4607 61.7857 29.8956 61.2287 30.5853C60.9594 30.9136 60.6791 30.9837 59.1299 31.1128C55.0466 31.4522 52.1584 32.1346 48.8018 33.5436C44.6189 35.2994 40.3954 38.5417 37.2011 42.4516C36.1973 43.8364 35.2772 45.28 34.4457 46.7747C33.8998 47.9993 33.2432 48.4345 32.3727 48.1468C31.2661 47.778 31.137 46.7415 31.9559 45.2586C33.6448 42.2428 35.7564 39.4841 38.2265 37.0662C39.7454 35.6968 41.3468 34.4218 43.0217 33.2485C44.9509 31.987 50.2698 29.5341 51.085 29.5341C51.4319 29.4814 51.772 29.3911 52.0994 29.2648C54.1318 28.5271 59.5283 27.9148 60.8156 28.2652H60.8008Z" fill="#336091"/>
    <path d="M68.9452 29.2575C71.8961 30.1317 73.1613 30.6186 75.3339 31.7326C79.8585 34.0429 83.7575 37.4129 86.6985 41.5554C87.1559 42.1935 87.6833 42.9128 87.8751 43.1599C88.4579 43.9161 90.2211 47.5862 90.885 49.4305C91.841 52.1163 92.4605 54.9102 92.7293 57.7484C92.9359 60.2824 92.8584 61.0866 92.3605 61.5919C92.133 61.7883 91.8455 61.9015 91.5452 61.9129C91.2449 61.9243 90.9497 61.8332 90.708 61.6546C90.2949 61.3595 90.2654 61.2304 89.9703 58.2131C89.7595 55.7868 89.2643 53.3937 88.4948 51.083C85.9986 43.8309 80.786 37.8302 73.9543 34.3441C73.4047 34.0675 72.8477 33.8204 71.1989 33.1011C69.6428 32.499 68.0387 32.0288 66.4037 31.6957C65.1644 31.526 64.4746 30.9359 64.4746 30.0395C64.4511 29.847 64.4802 29.6517 64.5588 29.4744C64.6373 29.2971 64.7625 29.1444 64.9209 29.0325C65.5886 28.5161 66.6287 28.5715 68.9526 29.2612L68.9452 29.2575Z" fill="#336091"/>
    <path d="M64.7253 33.6506C71.9771 34.7572 78.2551 38.6929 82.7479 44.8972C83.5503 46.0368 84.2678 47.2339 84.8946 48.4788C86.3258 51.1752 87.6906 56.7302 88.3287 62.4291C88.6533 65.3247 88.4431 66.0476 87.2885 66.0476C86.2447 66.0476 86.016 65.6788 85.732 63.4656C85.0385 58.1061 84.12 53.8974 83.0946 51.4076C81.988 48.737 81.2319 47.5124 79.0371 44.8972C76.0272 41.3081 71.1066 38.1913 66.8647 37.1916C63.6446 36.4281 63.0986 36.3543 60.6642 36.3543C57.8028 36.3077 54.9576 36.7917 52.2726 37.7818C51.0184 38.2835 50.4283 38.2503 49.8123 37.6417C48.9455 36.7822 49.2959 35.7457 50.6385 35.185C52.134 34.6048 53.6783 34.1592 55.253 33.8535L57.3186 33.5104C58.8789 33.2448 62.538 33.3149 64.7253 33.6543V33.6506Z" fill="#336091"/>
    <path d="M46.7102 38.3868C46.8907 38.6756 47.0006 39.0029 47.0311 39.3422C47.1233 40.0799 47.1085 40.0799 46.1089 40.9651C43.7998 42.9902 41.6014 45.3509 40.635 46.8448C40.078 47.7042 39.5026 48.5858 39.3403 48.8256C38.5473 49.9949 37.1935 53.6208 36.7177 55.8856C36.2606 58.3552 36.1452 60.876 36.3747 63.3771C37.3669 70.4556 37.3964 71.6396 36.714 77.025C36.4595 79.0242 35.862 79.6255 34.6041 79.1496C33.8664 78.8693 33.7484 78.2496 34.0914 76.5676C34.5045 74.5463 34.5009 68.5264 34.0914 66.4055C33.5897 64.1814 33.3948 61.8991 33.5123 59.6221C33.6119 56.7266 34.1726 53.6097 34.9324 51.699C35.1031 51.3007 35.2473 50.8916 35.364 50.4744C35.364 50.2641 36.3931 48.1838 37.153 46.8595C38.2995 44.984 39.6184 43.2193 41.0924 41.5885C42.317 40.2975 44.5376 38.4089 45.1499 38.1249C45.4125 38.0539 45.6876 38.0419 45.9555 38.0897C46.2233 38.1375 46.4773 38.244 46.6991 38.4016L46.7102 38.3868Z" fill="#336091"/>
    <path d="M64.5189 38.8405C65.2737 38.9664 66.0089 39.1896 66.7063 39.5045C66.8593 39.5937 66.9929 39.7127 67.0993 39.8544C67.2056 39.9961 67.2825 40.1576 67.3255 40.3295C67.3685 40.5013 67.3766 40.68 67.3494 40.8551C67.3223 41.0302 67.2604 41.198 67.1673 41.3488C66.7247 42.2636 66.2083 42.3816 64.4857 41.9463C63.346 41.6623 62.5381 41.5775 60.5242 41.6033C57.9753 41.6217 57.1565 41.7435 54.6519 42.4775C49.9489 43.857 45.1869 48.0768 43.1176 52.6986C42.0465 55.1824 41.4593 57.8478 41.3876 60.5517C41.3876 61.9607 41.4319 62.3259 42.011 65.8043C42.4426 68.4047 42.3799 74.1663 41.9262 76.5676C41.2217 80.1677 40.222 83.1518 39.6171 83.4764C39.3236 83.5692 39.0137 83.5988 38.7079 83.5632C38.4021 83.5276 38.1073 83.4276 37.8429 83.2698C37.4962 82.9821 37.5404 81.7501 37.9314 80.8575C38.5141 79.1963 38.9861 77.4982 39.3442 75.7746C39.713 74.2217 39.6724 68.1281 39.2925 66.1289C38.3445 61.1197 38.411 57.7742 39.536 54.0929C40.6758 50.3527 42.2139 47.8223 45.091 44.9304C47.4001 42.6103 50.2551 40.7623 52.7559 39.9471C53.1444 39.833 53.5221 39.6849 53.8847 39.5045C54.3009 39.3455 54.7341 39.2354 55.1757 39.1762C55.7806 39.0729 56.7581 38.8774 57.3188 38.752C58.9602 38.3831 62.4533 38.4163 64.5189 38.8368V38.8405Z" fill="#336091"/>
    <path d="M72.1653 41.8394C72.4309 42.0533 72.9584 42.4295 73.3383 42.673C74.3896 43.3517 76.2486 45.1222 77.5692 46.7083C78.0009 47.1946 78.3989 47.7098 78.7606 48.2502C78.8533 48.4755 78.9775 48.6867 79.1294 48.8772C81.5012 52.197 83.0283 58.9176 83.6148 68.615C83.8287 72.1487 83.6812 76.0549 83.1427 80.9792C82.8697 83.4764 82.6631 84.2547 82.2058 84.4981C81.937 84.6336 81.6348 84.6884 81.3356 84.6556C81.0364 84.6229 80.7531 84.5041 80.5201 84.3137C80.0996 83.9227 80.0221 82.8751 80.3209 81.6505C80.6197 80.4259 80.9147 75.5717 80.9147 72.0085C80.9147 66.8223 80.6418 63.4694 79.9336 59.9504C79.8413 59.482 79.6975 58.6447 79.62 58.1061C79.2185 56.0812 78.5809 54.1103 77.7204 52.2339C76.1361 49.1084 73.7491 46.4605 70.8043 44.5615C70.4078 44.2988 70.0658 43.9619 69.7973 43.5693C69.469 43.0345 69.4505 42.9091 69.6387 42.4627C69.7283 42.2224 69.8754 42.0076 70.0672 41.8372C70.259 41.6668 70.4895 41.5459 70.7388 41.4852C70.988 41.4244 71.2483 41.4256 71.497 41.4886C71.7457 41.5516 71.9751 41.6746 72.1653 41.8467V41.8394Z" fill="#336091"/>
    <path d="M64.659 44.1152C67.6473 44.8226 70.3686 46.376 72.4973 48.5895C73.9949 50.0649 74.2604 50.5998 73.9137 51.426C73.6555 52.0457 73.2867 52.2707 72.5305 52.2707C72.0768 52.2707 71.7928 52.0789 70.9296 51.1826C69.9733 50.1424 68.8638 49.2543 67.6394 48.5489C65.4989 47.3316 63.0925 46.6578 60.631 46.5866C58.909 46.6383 57.2059 46.9619 55.585 47.5456C55.2289 47.7162 54.8586 47.8557 54.4784 47.9624C54.0136 48.1762 53.5691 48.4318 53.1505 48.726C51.4695 49.7744 50.0284 51.1655 48.9212 52.8085C47.814 54.4514 47.0657 56.3093 46.725 58.261C46.4373 59.7365 46.6032 63.3956 47.009 64.6682C47.2672 65.476 47.3151 66.3059 47.3225 70.2306V74.8487L46.8946 75.1807C46.6425 75.406 46.3115 75.5227 45.9738 75.5055C45.6361 75.4882 45.3188 75.3383 45.0909 75.0885C44.6778 74.6495 44.6704 74.5905 44.6704 71.2486C44.7374 68.7742 44.5296 66.3 44.0507 63.8714C43.6885 61.4826 43.7171 59.0508 44.1356 56.6712C45.0319 52.5031 47.2598 49.3272 51.4058 46.3062C52.6963 45.4657 54.1066 44.8253 55.5887 44.4066C56.7987 44.0547 58.031 43.7849 59.2773 43.5988C60.2068 43.4365 63.0175 43.7095 64.6516 44.1263L64.659 44.1152Z" fill="#336091"/>
    <path d="M64.2606 49.2866C65.4589 49.691 66.581 50.2932 67.5804 51.0682C69.0562 52.2098 70.2647 53.66 71.1214 55.3175C71.9846 57.1876 72.0251 57.3684 72.8403 63.2923C72.9768 64.2882 73.1354 67.1505 73.2092 69.6625C73.2977 73.6609 73.2645 74.5942 72.951 77.1541C72.4198 81.4439 72.1358 83.1997 71.719 84.7341C71.5161 85.4903 71.3096 86.3055 71.2616 86.5416C70.9997 87.8695 69.9189 90.9937 69.6054 91.3368C69.3952 91.5544 69.1116 91.6863 68.8097 91.7067C68.5078 91.7272 68.209 91.6348 67.9713 91.4474C67.2336 90.92 67.2004 90.4921 67.8681 88.3047C68.6539 85.6887 69.3003 83.0329 69.8046 80.3484C70.5423 76.4163 70.7858 68.7071 70.2804 64.7271C70.1366 63.6205 69.9853 62.3886 69.9374 62.0086C69.3509 57.2356 67.8754 54.5576 64.9061 52.8719C62.9807 51.7654 60.0851 51.4776 57.7576 52.1342C56.6731 52.4367 56.0313 52.1342 55.8063 51.2047C55.5813 50.2752 55.9354 49.7292 57.0199 49.294C58.842 48.5784 62.3757 48.5858 64.2864 49.294L64.2606 49.2866Z" fill="#336091"/>
    <path d="M31.7308 50.9613C32.1845 51.4445 32.1772 52.149 31.6903 54.163C31.2649 56.2649 30.9949 58.3953 30.8825 60.5369C30.8825 62.8275 31.7235 67.7998 32.4059 69.5445C32.9075 70.817 32.4391 72.0749 31.469 72.0749C30.9009 72.0749 30.023 71.5621 30.023 71.2302C29.9182 70.7282 29.7752 70.2349 29.5951 69.7547C28.9902 68.0063 28.2931 63.9341 28.1787 61.4885C28.0607 58.9729 28.6619 54.0339 29.3554 51.8096C29.7242 50.6367 30.9968 50.183 31.7308 50.9649V50.9613Z" fill="#336091"/>
    <path d="M53.6191 52.7502C54.1134 53.1522 54.1171 54.1998 53.6191 54.8711C51.4539 57.822 51.1846 59.8803 52.258 65.3578C52.5826 67.0251 52.6453 67.9399 52.6527 71.042C52.6527 74.8007 52.6343 75.0995 51.7822 79.4815C51.476 81.0639 50.0522 85.6231 49.8198 85.7522C49.7616 85.8104 49.7164 85.8802 49.6872 85.9571C49.6579 86.0341 49.6453 86.1163 49.6502 86.1985C49.6502 86.7149 48.3223 89.2379 47.9423 89.4408C47.0681 89.9092 45.8583 89.249 45.8583 88.301C46.063 87.5087 46.3523 86.7407 46.7214 86.0104C47.049 85.3397 47.336 84.6499 47.5809 83.9448C47.6312 83.703 47.7183 83.4704 47.8391 83.255C48.2374 82.4804 49.2592 78.5372 49.5985 76.4532C49.8515 74.6562 49.9551 72.8413 49.9084 71.0272C49.9084 67.5046 49.8124 66.6194 49.0452 63.0193C48.3075 59.5225 49.2297 55.5424 51.3543 53.0969C51.8338 52.5473 52.0551 52.4256 52.5863 52.4256C52.951 52.4264 53.3075 52.5342 53.6117 52.7354L53.6191 52.7502Z" fill="#336091"/>
    <path d="M62.2614 54.2441C63.4243 54.5784 64.4713 55.2293 65.2855 56.1243C66.0998 57.0193 66.6491 58.1231 66.8722 59.3123C66.9533 59.8434 67.182 61.175 67.3738 62.2632C67.7759 64.5538 68.189 70.4924 68.0083 71.4257C67.8423 72.2667 67.4956 72.5949 66.7652 72.5949C65.6918 72.5949 65.5922 72.3367 65.3488 68.9063C65.2271 67.2022 65.05 65.3431 64.9541 64.7751C64.8582 64.207 64.6775 63.0525 64.541 62.1931C64.4212 61.3928 64.2574 60.5998 64.0504 59.8176C63.1319 56.7856 59.6241 56.0995 57.6617 58.5598C57.1564 59.1905 57.138 59.2754 57.1527 60.7914C57.1789 61.8366 57.2626 62.8796 57.4035 63.9157C57.7171 65.9923 57.7244 74.1479 57.4035 76.4901C56.9056 80.3115 55.4412 85.8776 54.2682 88.4228C54.1258 88.7088 54.0145 89.0093 53.9362 89.3191C53.9362 89.688 53.1985 90.8868 52.7633 91.2261C52.21 91.6614 51.5976 91.5581 51.0517 90.9384C50.5058 90.3187 50.5648 89.6806 51.1698 88.4928C51.7747 87.3051 52.9034 84.2952 52.9034 83.86C52.9035 83.6827 52.9561 83.5094 53.0546 83.362C53.2096 83.1886 53.5969 81.7243 54.01 79.7619C54.1502 79.0906 54.3789 78.0209 54.5227 77.3496C55.0797 74.7675 55.0207 64.3251 54.4453 62.8828C54.176 62.2115 54.128 58.9692 54.3826 58.6483C54.5528 58.3728 54.6867 58.0765 54.7809 57.7667C55.0502 56.9479 56.1236 55.7528 57.2265 55.0445C57.9558 54.5611 58.7812 54.2412 59.6458 54.1069C60.5105 53.9725 61.3939 54.0269 62.2356 54.2662L62.2614 54.2441Z" fill="#336091"/>
    <path d="M76.3298 55.0777C76.9052 55.6937 77.1966 56.9699 78.0524 62.6873C78.6942 66.9734 78.6979 75.0884 78.0524 79.4631C77.2433 84.9935 76.5241 88.0305 75.8946 88.574C75.1015 89.2674 73.899 88.9428 73.7035 87.9727C73.685 87.401 73.7611 86.8302 73.9285 86.2833C74.4445 84.3274 74.8472 82.3433 75.1347 80.341C75.6764 77.2722 75.9136 74.1574 75.8429 71.042C75.8429 66.4939 75.4482 62.4106 74.7142 59.4155C74.4882 58.4984 74.3109 57.5701 74.183 56.6343C74.0797 55.6531 74.1019 55.5277 74.5113 55.1293C74.6198 54.9958 74.7557 54.8872 74.91 54.8111C75.0642 54.7349 75.2331 54.6929 75.405 54.688C75.577 54.6831 75.748 54.7154 75.9063 54.7827C76.0646 54.8499 76.2066 54.9505 76.3224 55.0777H76.3298Z" fill="#336091"/>
    <path d="M61.2656 59.2606C61.7303 59.4377 62.0033 60.1901 62.2984 62.0861C62.8406 65.6198 62.9439 73.8491 62.4902 77.416C62.2689 79.1348 61.4869 83.0189 61.3098 83.2366C60.7455 83.9485 59.2147 83.7862 59.0155 82.9931C58.8975 82.521 59.0561 80.7541 59.3032 79.8246C59.7496 78.1279 60.1627 73.6241 60.1627 70.474C60.1627 67.2354 59.7569 62.8976 59.3106 61.3963C59.0414 60.4852 59.093 60.2086 59.6389 59.659C59.8342 59.4306 60.0962 59.2693 60.3881 59.1978C60.68 59.1264 60.9869 59.1483 61.2656 59.2606Z" fill="#336091"/>
    <path d="M88.6349 69.8359C88.9079 70.3671 88.9374 70.7654 88.8747 73.1557C88.8009 76.1066 88.6571 76.5971 87.8234 76.8074C87.5008 76.8552 87.1712 76.803 86.8791 76.6579C86.587 76.5129 86.3463 76.2818 86.1894 75.9959C86.0926 74.908 86.0753 73.8145 86.1377 72.7241C86.2226 69.8654 86.23 69.8249 86.6615 69.4855C86.8089 69.37 86.9776 69.2848 87.158 69.2348C87.3385 69.1848 87.527 69.171 87.7128 69.1941C87.9167 69.1871 88.1173 69.2472 88.2839 69.3651C88.4504 69.483 88.5737 69.6523 88.6349 69.847V69.8359Z" fill="#336091"/>
    <path d="M67.2743 76.0475C67.8534 76.5012 67.8718 77.2242 67.3812 79.998C67.1931 81.0825 66.9644 82.3661 66.8833 82.8383C66.5439 84.76 65.6587 87.7146 64.3455 91.3221C64.0615 92.0967 63.427 92.7348 62.9365 92.7348C62.4459 92.7348 61.5901 92.104 61.461 91.6503C61.3872 91.3589 61.5053 90.7872 61.793 90.0311C63.1963 86.3811 64.203 82.5908 64.7955 78.7255C65.098 76.7447 65.1902 76.4422 65.5886 76.0992C65.6957 75.984 65.8249 75.8915 65.9685 75.8273C66.1121 75.7631 66.2671 75.7284 66.4244 75.7253C66.5817 75.7222 66.7379 75.7507 66.8839 75.8093C67.0299 75.8678 67.1627 75.9551 67.2743 76.066V76.0475Z" fill="#336091"/>
    <path d="M46.0352 78.9136C46.2326 79.1564 46.3601 79.4485 46.4041 79.7583C46.4041 80.2341 45.0467 84.3728 44.4491 85.7154C43.9991 86.7298 43.6155 87.0581 42.8704 87.0581C42.3208 87.0581 41.5793 86.3462 41.5793 85.8187C41.742 84.9592 42.0316 84.1288 42.4388 83.3547C42.7363 82.6505 42.9901 81.9286 43.1987 81.1932C43.5417 80.0866 43.9769 79.0353 44.1761 78.8251C44.3002 78.6981 44.4498 78.5989 44.6151 78.5339C44.7803 78.4689 44.9574 78.4396 45.1347 78.448C45.3121 78.4564 45.4857 78.5022 45.644 78.5824C45.8024 78.6627 45.942 78.7755 46.0536 78.9136H46.0352Z" fill="#336091"/>
    <path d="M59.5945 86.4716C60.17 86.881 60.1773 87.5412 59.624 89.2306C58.7351 91.9528 58.3146 92.5873 57.4109 92.5873C57.0889 92.5615 56.7813 92.4434 56.5248 92.2471C56.2683 92.0508 56.0739 91.7847 55.9649 91.4807C55.8961 91.2077 56.0903 90.5192 56.5477 89.4151C56.8309 88.7923 57.0616 88.147 57.2375 87.4859C57.3293 87.1869 57.5015 86.9189 57.7355 86.7113C57.9585 86.4501 58.2704 86.2807 58.6109 86.2358C58.9514 86.1908 59.2966 86.2735 59.5798 86.4679L59.5945 86.4716Z" fill="#336091"/>
</svg>

